<svg width="32" height="32" viewBox="0 0 32 32" fill="none" xmlns="http://www.w3.org/2000/svg">
  <!-- Background circle with gradient -->
  <defs>
    <linearGradient id="bgGradient" x1="0%" y1="0%" x2="100%" y2="100%">
      <stop offset="0%" style="stop-color:#667eea;stop-opacity:1" />
      <stop offset="100%" style="stop-color:#764ba2;stop-opacity:1" />
    </linearGradient>
    <linearGradient id="shieldGradient" x1="0%" y1="0%" x2="100%" y2="100%">
      <stop offset="0%" style="stop-color:#ffffff;stop-opacity:1" />
      <stop offset="100%" style="stop-color:#f0f0f0;stop-opacity:1" />
    </linearGradient>
  </defs>
  
  <!-- Main background -->
  <circle cx="16" cy="16" r="16" fill="url(#bgGradient)"/>
  
  <!-- Shield representing privacy/security -->
  <path d="M16 6L24 10V16C24 20.4183 20.4183 24 16 24C11.5817 24 8 20.4183 8 16V10L16 6Z" 
        fill="url(#shieldGradient)" stroke="#667eea" stroke-width="1.5"/>
  
  <!-- AI/Neural network nodes -->
  <circle cx="12" cy="14" r="2" fill="#667eea"/>
  <circle cx="20" cy="14" r="2" fill="#667eea"/>
  <circle cx="16" cy="18" r="2" fill="#667eea"/>
  
  <!-- Connections between nodes -->
  <line x1="12" y1="14" x2="20" y2="14" stroke="#667eea" stroke-width="1.5"/>
  <line x1="12" y1="14" x2="16" y2="18" stroke="#667eea" stroke-width="1.5"/>
  <line x1="20" y1="14" x2="16" y2="18" stroke="#667eea" stroke-width="1.5"/>
  
  <!-- Lock symbol for privacy -->
  <rect x="14" y="20" width="4" height="3" rx="1" fill="#667eea"/>
  <circle cx="16" cy="19" r="1.5" fill="#667eea"/>
</svg>
